HIERARCHY
ROOT Hips
{
	OFFSET 0.0000 0.0000 0.0000
	CHANNELS 6 Xposition Yposition Zposition Zrotation Xrotation Yrotation
	JOINT Ab
	{
		OFFSET -0.0000 8.1305 -0.0000
		CHANNELS 3 Zrotation Xrotation Yrotation
		JOINT Chest
		{
			OFFSET -0.0000 26.2902 -0.0000
			CHANNELS 3 Zrotation Xrotation Yrotation
			JOINT Neck
			{
				OFFSET -0.0000 26.2902 0.0000
				CHANNELS 3 Zrotation Xrotation Yrotation
				JOINT Head
				{
					OFFSET -0.0000 10.8167 0.0000
					CHANNELS 3 Zrotation Xrotation Yrotation
					End Site
					{
						OFFSET -0.0000 16.7167 0.0000
					}
				}
			}
			JOINT LeftCollar
			{
				OFFSET -0.0000 26.2902 0.0000
				CHANNELS 3 Zrotation Xrotation Yrotation
				JOINT LeftShoulder
				{
					OFFSET 19.6667 -0.0000 0.0000
					CHANNELS 3 Zrotation Xrotation Yrotation
					JOINT LeftElbow
					{
						OFFSET 27.2190 0.0000 0.0000
						CHANNELS 3 Zrotation Xrotation Yrotation
						JOINT LeftWrist
						{
							OFFSET 30.7431 0.0000 0.0000
							CHANNELS 3 Zrotation Xrotation Yrotation
							End Site
							{
								OFFSET 0.0000 -14.7500 0.0000
							}
						}
					}
				}
			}
			JOINT RightCollar
			{
				OFFSET -0.0000 26.2902 0.0000
				CHANNELS 3 Zrotation Xrotation Yrotation
				JOINT RightShoulder
				{
					OFFSET -19.6667 0.0000 0.0000
					CHANNELS 3 Zrotation Xrotation Yrotation
					JOINT RightElbow
					{
						OFFSET -27.2190 0.0000 0.0000
						CHANNELS 3 Zrotation Xrotation Yrotation
						JOINT RightWrist
						{
							OFFSET -30.7431 0.0000 0.0000
							CHANNELS 3 Zrotation Xrotation Yrotation
							End Site
							{
								OFFSET -0.0000 -14.7500 0.0000
							}
						}
					}
				}
			}
		}
	}
	JOINT LeftHip
	{
		OFFSET 11.8000 0.0000 0.0000
		CHANNELS 3 Zrotation Xrotation Yrotation
		JOINT LeftKnee
		{
			OFFSET -0.0000 -39.7832 0.0000
			CHANNELS 3 Zrotation Xrotation Yrotation
			JOINT LeftAnkle
			{
				OFFSET -0.0000 -41.7317 0.0000
				CHANNELS 3 Zrotation Xrotation Yrotation
				End Site
				{
					OFFSET -0.0000 -4.9167 16.7167
				}
			}
		}
	}
	JOINT RightHip
	{
		OFFSET -11.8000 0.0000 0.0000
		CHANNELS 3 Zrotation Xrotation Yrotation
		JOINT RightKnee
		{
			OFFSET -0.0000 -39.7832 0.0000
			CHANNELS 3 Zrotation Xrotation Yrotation
			JOINT RightAnkle
			{
				OFFSET -0.0000 -41.7317 0.0000
				CHANNELS 3 Zrotation Xrotation Yrotation
				End Site
				{
					OFFSET -0.0000 -4.9167 16.7167
				}
			}
		}
	}
}
MOTION
Frames: 10
Frame Time: 0.010000
-10.5228 88.2249 124.5080 358.2409 334.5724 181.7222 2.4496 353.6087 356.4927 3.3953 6.4528 356.1685 4.6558 325.7821 7.8085 349.6038 13.6067 7.6150 338.7335 356.5046 18.6504 0.0867 52.7983 301.9499 17.8062 339.2032 258.5596 103.2167 358.2492 9.6486 23.8398 356.7931 344.9543 43.8242 27.5883 338.2950 353.8168 353.9213 76.6795 267.6209 354.1356 18.1766 1.0636 0.0920 359.2836 0.0968 30.4370 8.6361 344.6861 354.5669 10.9490 346.9898 317.2656 354.5543 20.0138 44.1627 4.2169 349.7031 326.6454 311.9990 
-10.0303 87.8901 122.9587 358.0942 334.7649 181.3802 2.4297 353.8607 356.8873 3.6284 6.4418 356.5573 4.1128 325.7667 7.4606 349.9703 13.2194 7.3508 338.8274 356.4692 19.1230 359.4503 53.1771 303.2497 17.2231 340.1791 259.5911 103.0026 358.3066 9.4317 23.9871 356.7275 344.6098 43.9317 28.5800 339.9985 352.2421 352.6155 76.7367 266.7892 354.7631 16.8215 1.0924 358.3451 359.3095 0.1015 35.6203 7.0161 344.9363 354.3743 10.3477 347.6145 318.1080 354.8497 19.2692 44.8673 7.1016 348.5349 326.5347 309.5607 
-9.5230 87.5763 121.4957 358.0842 334.7216 180.9154 2.5292 354.0198 357.4099 3.8576 6.3429 357.0702 3.5754 325.8579 7.1221 350.3557 12.5924 7.0898 339.0137 356.4139 19.8300 0.0131 53.9204 303.3791 17.0146 340.5026 261.2962 102.3870 357.5771 8.6456 24.0846 356.6495 344.2096 43.9586 30.2715 341.9914 350.3384 350.8929 76.6702 265.8903 355.3764 14.5676 0.8636 356.3672 359.5372 0.4113 40.9607 5.5082 343.7272 353.9407 9.8828 348.3884 318.8062 356.1531 19.8658 45.3783 8.2488 346.4647 327.7384 307.2700 
-9.0729 87.2956 120.0525 358.0610 334.5487 180.2695 2.6989 354.0876 358.0627 4.0134 6.2098 357.7123 2.9953 326.1279 6.7169 350.7188 11.7272 6.7598 339.2460 356.3849 20.1479 359.6150 54.7277 304.6817 16.8458 341.2248 262.9489 102.7256 357.1753 8.2058 24.2035 356.5558 343.7991 43.5997 32.4080 344.2352 348.2020 348.9993 76.7896 264.9511 356.5804 11.7908 0.5352 353.6560 359.8676 0.7615 46.7991 4.4178 341.7945 353.2508 9.6084 349.5675 319.2750 357.5960 20.3477 45.9609 8.6863 345.0222 328.3294 305.6117 
-8.6865 87.0204 118.6287 357.9951 334.2494 179.4543 2.9359 354.0222 358.8153 4.0732 6.0646 358.4514 2.0117 326.7067 6.1015 351.4886 10.4942 6.2766 339.3994 356.3813 20.0531 356.9750 55.0124 308.4244 16.1134 343.1229 264.0379 103.9730 357.2095 8.1475 24.3135 356.4738 343.6068 43.0419 34.6264 346.3136 345.8819 346.9230 77.3006 264.0433 357.9638 8.8001 0.6236 350.4183 0.2547 0.8199 52.9054 3.2157 343.1060 352.3967 9.7235 350.6568 319.4647 358.4576 20.1446 46.6521 9.4144 343.5755 328.9770 304.7253 
-8.2083 86.7033 117.3365 358.2482 333.7483 178.8189 3.2709 353.9395 359.5477 4.2887 5.7277 359.1618 1.3447 327.3772 5.5963 351.7842 9.4043 5.8521 339.6028 356.4256 19.8082 353.7099 55.4297 312.9397 15.0517 344.9166 265.1372 105.0663 356.7980 7.5856 24.3666 356.4044 343.3400 42.1949 36.9181 348.6006 343.4926 344.7763 78.0622 263.2459 359.1026 6.2471 0.7949 347.2252 0.5129 0.2429 58.8993 3.8933 341.6325 352.3174 10.1080 351.9541 319.6817 359.4355 19.7230 47.1013 9.7297 342.6622 329.1258 304.4495 
-7.7353 86.3769 115.9714 358.4240 333.5446 178.0105 3.4544 354.1479 0.2774 4.5623 5.3176 359.8901 0.8627 328.2632 5.2277 351.9110 8.3868 5.5619 339.4178 356.4094 19.5491 351.1660 55.4745 317.1717 13.5953 347.1480 266.2444 107.1905 356.8150 6.3474 24.6199 356.2816 342.9469 40.4029 39.3711 351.3928 341.1128 342.5844 79.0528 262.4973 359.7190 3.6259 1.3605 343.8413 0.3490 357.1682 64.4284 7.8866 341.8553 352.4038 10.0788 353.4742 319.9310 0.6819 19.3005 47.4705 9.7561 342.0831 328.6797 304.3403 
-7.2577 86.0690 114.6000 358.6774 333.1333 177.2729 3.6137 354.1896 1.0132 4.9493 4.8014 0.6272 0.3443 328.9178 4.8227 351.9175 7.8832 5.2627 339.1978 356.3753 19.5444 349.5566 55.6416 320.7767 12.3188 348.6074 267.6388 107.7116 356.4972 4.7779 25.1400 356.0966 342.5244 37.7416 41.6805 354.6475 338.8107 340.3898 80.1263 261.6646 359.7747 1.2029 1.8530 340.2948 0.6361 354.3677 69.4976 11.0551 345.7156 352.2640 9.7822 354.9502 320.2934 1.9421 19.0447 47.7384 9.6787 341.5189 328.1640 304.2455 
-6.8273 85.7927 113.1968 358.7509 332.7727 176.5917 3.8637 354.3358 1.4376 4.9199 4.1611 1.0723 359.7409 329.2418 4.4913 352.3044 7.9196 5.1004 338.8428 356.2825 19.7085 347.9821 55.3087 324.4647 10.9025 350.4604 268.9587 108.4481 355.7680 3.2989 25.8960 355.8831 342.3539 34.5207 43.2033 358.0559 336.9826 338.6063 81.7088 260.6273 359.8423 358.9628 2.2749 336.6675 1.2857 351.7458 74.5035 13.6504 346.1801 352.5842 9.9541 356.2544 320.6231 3.1850 18.9752 47.9183 9.6972 340.8876 327.6891 303.8885 
-6.4052 85.5885 111.7666 358.6934 332.3471 175.8765 3.8490 354.3277 1.8286 5.0873 3.7126 1.4783 359.2974 329.3277 4.3981 352.6210 8.1720 5.1522 338.3751 356.1611 19.8067 346.4041 54.5567 328.4064 9.2009 352.6494 270.0336 109.4233 354.9829 2.2856 26.6528 355.7397 342.5033 31.2087 43.8252 1.7386 335.7528 337.2950 83.6477 259.4612 0.0306 356.6159 2.4114 332.9229 1.8842 346.8586 79.0160 18.9095 346.4103 352.4225 9.6493 357.1458 321.2945 4.3550 19.0209 47.8099 9.5779 340.3586 327.1799 303.7168 
